<mxfile host="Electron" modified="2023-05-22T20:24:42.662Z" agent="Mozilla/5.0 (Windows NT 10.0; Win64; x64) AppleWebKit/537.36 (KHTML, like Gecko) draw.io/21.2.8 Chrome/112.0.5615.165 Electron/24.2.0 Safari/537.36" etag="zdw-CL0u0xHPnYtmxhyE" version="21.2.8" type="device">
  <diagram name="Page-1" id="Inq1Hw6wfs_KIvEQWjql">
    <mxGraphModel dx="186" dy="606" grid="1" gridSize="10" guides="1" tooltips="1" connect="1" arrows="1" fold="1" page="1" pageScale="1" pageWidth="850" pageHeight="1100" math="0" shadow="0">
      <root>
        <mxCell id="0" />
        <mxCell id="1" parent="0" />
        <mxCell id="gyXMwO3ofP4Fgjw1sUbA-225" value="" style="group;fontFamily=Times New Roman;fontSize=25;fillColor=default;container=0;" parent="1" vertex="1" connectable="0">
          <mxGeometry x="850" width="610" height="629" as="geometry" />
        </mxCell>
        <mxCell id="gyXMwO3ofP4Fgjw1sUbA-120" value="&lt;font style=&quot;&quot;&gt;&lt;i style=&quot;font-size: 25px;&quot;&gt;x&lt;/i&gt;&lt;sub style=&quot;&quot;&gt;&lt;font style=&quot;font-size: 20px;&quot;&gt;4&lt;/font&gt;&lt;/sub&gt;&lt;/font&gt;" style="text;html=1;strokeColor=none;fillColor=none;align=center;verticalAlign=middle;whiteSpace=wrap;rounded=0;fontFamily=Times New Roman;fontSize=25;" parent="1" vertex="1">
          <mxGeometry x="1085" y="599" width="30" height="30" as="geometry" />
        </mxCell>
        <mxCell id="gyXMwO3ofP4Fgjw1sUbA-122" value="&lt;font style=&quot;&quot;&gt;&lt;span style=&quot;font-size: 25px; font-style: italic;&quot;&gt;x&lt;/span&gt;&lt;sub style=&quot;&quot;&gt;&lt;font style=&quot;font-size: 20px;&quot;&gt;3&lt;/font&gt;&lt;/sub&gt;&lt;/font&gt;" style="text;html=1;strokeColor=none;fillColor=none;align=center;verticalAlign=middle;whiteSpace=wrap;rounded=0;fontFamily=Times New Roman;fontSize=25;" parent="1" vertex="1">
          <mxGeometry x="975" y="599" width="30" height="30" as="geometry" />
        </mxCell>
        <mxCell id="gyXMwO3ofP4Fgjw1sUbA-123" value="" style="group;fontFamily=Times New Roman;fontSize=25;fontColor=#FFFFFF;" parent="1" vertex="1" connectable="0">
          <mxGeometry x="950" y="489" width="80" height="80" as="geometry" />
        </mxCell>
        <mxCell id="gyXMwO3ofP4Fgjw1sUbA-124" value="1.0" style="ellipse;whiteSpace=wrap;html=1;aspect=fixed;fontFamily=Times New Roman;fontSize=25;fontColor=#ffffff;fillColor=#008a00;strokeColor=#005700;" parent="gyXMwO3ofP4Fgjw1sUbA-123" vertex="1">
          <mxGeometry width="80" height="80" as="geometry" />
        </mxCell>
        <mxCell id="gyXMwO3ofP4Fgjw1sUbA-121" value="" style="edgeStyle=orthogonalEdgeStyle;rounded=0;orthogonalLoop=1;jettySize=auto;html=1;fontFamily=Times New Roman;fontSize=25;" parent="1" source="gyXMwO3ofP4Fgjw1sUbA-122" target="gyXMwO3ofP4Fgjw1sUbA-124" edge="1">
          <mxGeometry relative="1" as="geometry" />
        </mxCell>
        <mxCell id="gyXMwO3ofP4Fgjw1sUbA-126" value="" style="group;fontFamily=Times New Roman;fontSize=25;fontColor=#FFFFFF;" parent="1" vertex="1" connectable="0">
          <mxGeometry x="1060" y="489" width="80" height="80" as="geometry" />
        </mxCell>
        <mxCell id="gyXMwO3ofP4Fgjw1sUbA-127" value="&lt;font color=&quot;#ffffff&quot;&gt;0.58&lt;/font&gt;" style="ellipse;whiteSpace=wrap;html=1;aspect=fixed;fontFamily=Times New Roman;fontSize=25;fontColor=#000000;fillColor=#fa6800;strokeColor=#C73500;" parent="gyXMwO3ofP4Fgjw1sUbA-126" vertex="1">
          <mxGeometry width="80" height="80" as="geometry" />
        </mxCell>
        <mxCell id="gyXMwO3ofP4Fgjw1sUbA-119" value="" style="edgeStyle=orthogonalEdgeStyle;rounded=0;orthogonalLoop=1;jettySize=auto;html=1;fontFamily=Times New Roman;fontSize=25;" parent="1" source="gyXMwO3ofP4Fgjw1sUbA-120" target="gyXMwO3ofP4Fgjw1sUbA-127" edge="1">
          <mxGeometry relative="1" as="geometry" />
        </mxCell>
        <mxCell id="gyXMwO3ofP4Fgjw1sUbA-134" value="&lt;font style=&quot;&quot;&gt;&lt;i style=&quot;font-size: 25px;&quot;&gt;x&lt;/i&gt;&lt;sub style=&quot;&quot;&gt;&lt;font style=&quot;font-size: 20px;&quot;&gt;4&lt;/font&gt;&lt;/sub&gt;&lt;/font&gt;" style="text;html=1;strokeColor=none;fillColor=none;align=center;verticalAlign=middle;whiteSpace=wrap;rounded=0;fontFamily=Times New Roman;fontSize=25;" parent="1" vertex="1">
          <mxGeometry x="1305" y="599" width="30" height="30" as="geometry" />
        </mxCell>
        <mxCell id="gyXMwO3ofP4Fgjw1sUbA-136" value="&lt;font style=&quot;&quot;&gt;&lt;i style=&quot;font-size: 25px;&quot;&gt;x&lt;/i&gt;&lt;sub style=&quot;&quot;&gt;&lt;font style=&quot;font-size: 20px;&quot;&gt;3&lt;/font&gt;&lt;/sub&gt;&lt;/font&gt;" style="text;html=1;strokeColor=none;fillColor=none;align=center;verticalAlign=middle;whiteSpace=wrap;rounded=0;fontFamily=Times New Roman;fontSize=25;" parent="1" vertex="1">
          <mxGeometry x="1195" y="599" width="30" height="30" as="geometry" />
        </mxCell>
        <mxCell id="gyXMwO3ofP4Fgjw1sUbA-137" value="" style="group;fontFamily=Times New Roman;fontSize=25;fontColor=#FFFFFF;" parent="1" vertex="1" connectable="0">
          <mxGeometry x="1170" y="489" width="80" height="80" as="geometry" />
        </mxCell>
        <mxCell id="gyXMwO3ofP4Fgjw1sUbA-138" value="1.0" style="ellipse;whiteSpace=wrap;html=1;aspect=fixed;fontFamily=Times New Roman;fontSize=25;fontColor=#ffffff;fillColor=#008a00;strokeColor=#005700;" parent="gyXMwO3ofP4Fgjw1sUbA-137" vertex="1">
          <mxGeometry width="80" height="80" as="geometry" />
        </mxCell>
        <mxCell id="gyXMwO3ofP4Fgjw1sUbA-135" value="" style="edgeStyle=orthogonalEdgeStyle;rounded=0;orthogonalLoop=1;jettySize=auto;html=1;fontFamily=Times New Roman;fontSize=25;" parent="1" source="gyXMwO3ofP4Fgjw1sUbA-136" target="gyXMwO3ofP4Fgjw1sUbA-138" edge="1">
          <mxGeometry relative="1" as="geometry" />
        </mxCell>
        <mxCell id="gyXMwO3ofP4Fgjw1sUbA-140" value="" style="group;fontFamily=Times New Roman;fontSize=25;fontColor=#FFFFFF;" parent="1" vertex="1" connectable="0">
          <mxGeometry x="1280" y="489" width="80" height="80" as="geometry" />
        </mxCell>
        <mxCell id="gyXMwO3ofP4Fgjw1sUbA-141" value=".77" style="ellipse;whiteSpace=wrap;html=1;aspect=fixed;fontFamily=Times New Roman;fontSize=25;fontColor=#FFFFFF;fillColor=#fa6800;strokeColor=#C73500;" parent="gyXMwO3ofP4Fgjw1sUbA-140" vertex="1">
          <mxGeometry width="80" height="80" as="geometry" />
        </mxCell>
        <mxCell id="gyXMwO3ofP4Fgjw1sUbA-133" value="" style="edgeStyle=orthogonalEdgeStyle;rounded=0;orthogonalLoop=1;jettySize=auto;html=1;fontFamily=Times New Roman;fontSize=25;" parent="1" source="gyXMwO3ofP4Fgjw1sUbA-134" target="gyXMwO3ofP4Fgjw1sUbA-141" edge="1">
          <mxGeometry relative="1" as="geometry" />
        </mxCell>
        <mxCell id="gyXMwO3ofP4Fgjw1sUbA-151" value="" style="edgeStyle=orthogonalEdgeStyle;rounded=0;orthogonalLoop=1;jettySize=auto;html=1;fontFamily=Times New Roman;fontSize=25;fontColor=#FFFFFF;" parent="1" edge="1">
          <mxGeometry relative="1" as="geometry">
            <mxPoint x="1100" y="369" as="sourcePoint" />
            <mxPoint x="1100" y="329" as="targetPoint" />
          </mxGeometry>
        </mxCell>
        <mxCell id="gyXMwO3ofP4Fgjw1sUbA-131" value="" style="rounded=0;orthogonalLoop=1;jettySize=auto;html=1;entryX=0;entryY=1;entryDx=0;entryDy=0;fontFamily=Times New Roman;fontSize=25;fontColor=#FFFFFF;" parent="1" edge="1">
          <mxGeometry relative="1" as="geometry">
            <mxPoint x="1071.7157287525379" y="317.28427124746213" as="targetPoint" />
            <mxPoint x="1016.5949266331977" y="379.121749091099" as="sourcePoint" />
          </mxGeometry>
        </mxCell>
        <mxCell id="gyXMwO3ofP4Fgjw1sUbA-155" value="" style="edgeStyle=orthogonalEdgeStyle;rounded=0;orthogonalLoop=1;jettySize=auto;html=1;fontFamily=Times New Roman;fontSize=25;fontColor=#FFFFFF;" parent="1" source="gyXMwO3ofP4Fgjw1sUbA-141" edge="1">
          <mxGeometry relative="1" as="geometry">
            <mxPoint x="1320" y="449" as="targetPoint" />
          </mxGeometry>
        </mxCell>
        <mxCell id="gyXMwO3ofP4Fgjw1sUbA-156" value="" style="edgeStyle=orthogonalEdgeStyle;rounded=0;orthogonalLoop=1;jettySize=auto;html=1;fontFamily=Times New Roman;fontSize=25;fontColor=#FFFFFF;" parent="1" source="gyXMwO3ofP4Fgjw1sUbA-124" edge="1">
          <mxGeometry relative="1" as="geometry">
            <mxPoint x="990" y="449" as="targetPoint" />
          </mxGeometry>
        </mxCell>
        <mxCell id="gyXMwO3ofP4Fgjw1sUbA-157" value="" style="rounded=0;orthogonalLoop=1;jettySize=auto;html=1;entryX=1;entryY=1;entryDx=0;entryDy=0;fontFamily=Times New Roman;fontSize=25;fontColor=#FFFFFF;" parent="1" source="gyXMwO3ofP4Fgjw1sUbA-127" edge="1">
          <mxGeometry relative="1" as="geometry">
            <mxPoint x="1018.2842712474621" y="437.28427124746213" as="targetPoint" />
          </mxGeometry>
        </mxCell>
        <mxCell id="gyXMwO3ofP4Fgjw1sUbA-158" value="" style="edgeStyle=orthogonalEdgeStyle;rounded=0;orthogonalLoop=1;jettySize=auto;html=1;fontFamily=Times New Roman;fontSize=25;fontColor=#FFFFFF;" parent="1" source="gyXMwO3ofP4Fgjw1sUbA-127" edge="1">
          <mxGeometry relative="1" as="geometry">
            <mxPoint x="1100" y="449" as="targetPoint" />
          </mxGeometry>
        </mxCell>
        <mxCell id="gyXMwO3ofP4Fgjw1sUbA-154" value="" style="rounded=0;orthogonalLoop=1;jettySize=auto;html=1;entryX=1;entryY=1;entryDx=0;entryDy=0;fontFamily=Times New Roman;fontSize=25;fontColor=#FFFFFF;" parent="1" edge="1">
          <mxGeometry relative="1" as="geometry">
            <mxPoint x="1238.2842712474621" y="317.28427124746213" as="targetPoint" />
            <mxPoint x="1293.4050733668023" y="379.121749091099" as="sourcePoint" />
          </mxGeometry>
        </mxCell>
        <mxCell id="gyXMwO3ofP4Fgjw1sUbA-160" value="" style="rounded=0;orthogonalLoop=1;jettySize=auto;html=1;entryX=0;entryY=1;entryDx=0;entryDy=0;fontFamily=Times New Roman;fontSize=25;fontColor=#FFFFFF;" parent="1" source="gyXMwO3ofP4Fgjw1sUbA-138" edge="1">
          <mxGeometry relative="1" as="geometry">
            <mxPoint x="1291.7157287525379" y="437.28427124746213" as="targetPoint" />
          </mxGeometry>
        </mxCell>
        <mxCell id="gyXMwO3ofP4Fgjw1sUbA-152" value="" style="edgeStyle=orthogonalEdgeStyle;rounded=0;orthogonalLoop=1;jettySize=auto;html=1;fontFamily=Times New Roman;fontSize=25;fontColor=#FFFFFF;" parent="1" edge="1">
          <mxGeometry relative="1" as="geometry">
            <mxPoint x="1210" y="369" as="sourcePoint" />
            <mxPoint x="1210" y="329" as="targetPoint" />
          </mxGeometry>
        </mxCell>
        <mxCell id="gyXMwO3ofP4Fgjw1sUbA-162" value="" style="rounded=0;orthogonalLoop=1;jettySize=auto;html=1;entryX=1;entryY=1;entryDx=0;entryDy=0;fontFamily=Times New Roman;fontSize=25;fontColor=#FFFFFF;" parent="1" source="gyXMwO3ofP4Fgjw1sUbA-141" edge="1">
          <mxGeometry relative="1" as="geometry">
            <mxPoint x="1238.2842712474621" y="437.28427124746213" as="targetPoint" />
          </mxGeometry>
        </mxCell>
        <mxCell id="gyXMwO3ofP4Fgjw1sUbA-164" value="" style="rounded=0;orthogonalLoop=1;jettySize=auto;html=1;entryX=0;entryY=1;entryDx=0;entryDy=0;fontFamily=Times New Roman;fontSize=25;fontColor=#FFFFFF;" parent="1" source="gyXMwO3ofP4Fgjw1sUbA-124" edge="1">
          <mxGeometry relative="1" as="geometry">
            <mxPoint x="1181.7157287525379" y="437.28427124746213" as="targetPoint" />
          </mxGeometry>
        </mxCell>
        <mxCell id="gyXMwO3ofP4Fgjw1sUbA-165" value="" style="rounded=0;orthogonalLoop=1;jettySize=auto;html=1;entryX=1;entryY=1;entryDx=0;entryDy=0;fontFamily=Times New Roman;fontSize=25;fontColor=#FFFFFF;" parent="1" source="gyXMwO3ofP4Fgjw1sUbA-138" edge="1">
          <mxGeometry relative="1" as="geometry">
            <mxPoint x="1128.2842712474621" y="437.28427124746213" as="targetPoint" />
          </mxGeometry>
        </mxCell>
        <mxCell id="gyXMwO3ofP4Fgjw1sUbA-209" value="" style="edgeStyle=orthogonalEdgeStyle;rounded=0;orthogonalLoop=1;jettySize=auto;html=1;fontFamily=Times New Roman;fontSize=25;fontColor=#FFFFFF;" parent="1" edge="1">
          <mxGeometry relative="1" as="geometry">
            <mxPoint x="1100" y="249" as="sourcePoint" />
            <mxPoint x="1100" y="202" as="targetPoint" />
          </mxGeometry>
        </mxCell>
        <mxCell id="gyXMwO3ofP4Fgjw1sUbA-210" value="" style="edgeStyle=orthogonalEdgeStyle;rounded=0;orthogonalLoop=1;jettySize=auto;html=1;fontFamily=Times New Roman;fontSize=25;fontColor=#FFFFFF;" parent="1" edge="1">
          <mxGeometry relative="1" as="geometry">
            <mxPoint x="1210" y="249" as="sourcePoint" />
            <mxPoint x="1210" y="202" as="targetPoint" />
          </mxGeometry>
        </mxCell>
        <mxCell id="gyXMwO3ofP4Fgjw1sUbA-175" value="" style="group;fontFamily=Times New Roman;fontSize=25;fontColor=#FFFFFF;" parent="1" vertex="1" connectable="0">
          <mxGeometry x="1312" y="249" width="80" height="80" as="geometry" />
        </mxCell>
        <mxCell id="gyXMwO3ofP4Fgjw1sUbA-176" value="0.83" style="ellipse;whiteSpace=wrap;html=1;aspect=fixed;fontFamily=Times New Roman;fontSize=25;fontColor=#FFFFFF;fillColor=#fa6800;strokeColor=#C73500;" parent="gyXMwO3ofP4Fgjw1sUbA-175" vertex="1">
          <mxGeometry width="80" height="80" as="geometry" />
        </mxCell>
        <mxCell id="gyXMwO3ofP4Fgjw1sUbA-178" value="" style="group;fontFamily=Times New Roman;fontSize=25;fontColor=#FFFFFF;" parent="1" vertex="1" connectable="0">
          <mxGeometry x="1312" y="129" width="80" height="80" as="geometry" />
        </mxCell>
        <mxCell id="gyXMwO3ofP4Fgjw1sUbA-179" value="&lt;font style=&quot;font-size: 25px;&quot;&gt;1.0&lt;/font&gt;" style="ellipse;whiteSpace=wrap;html=1;aspect=fixed;fontFamily=Times New Roman;fontSize=25;fontColor=#ffffff;fillColor=#008a00;strokeColor=#005700;" parent="gyXMwO3ofP4Fgjw1sUbA-178" vertex="1">
          <mxGeometry y="-7" width="80" height="80" as="geometry" />
        </mxCell>
        <mxCell id="gyXMwO3ofP4Fgjw1sUbA-200" value="" style="group;fontFamily=Times New Roman;fontSize=25;fontColor=#FFFFFF;" parent="1" vertex="1" connectable="0">
          <mxGeometry x="920" y="249" width="80" height="80" as="geometry" />
        </mxCell>
        <mxCell id="gyXMwO3ofP4Fgjw1sUbA-201" value="&lt;font color=&quot;#ffffff&quot;&gt;.61&lt;/font&gt;" style="ellipse;whiteSpace=wrap;html=1;aspect=fixed;fontFamily=Times New Roman;fontSize=25;fontColor=#000000;fillColor=#fa6800;strokeColor=#C73500;" parent="gyXMwO3ofP4Fgjw1sUbA-200" vertex="1">
          <mxGeometry width="80" height="80" as="geometry" />
        </mxCell>
        <mxCell id="gyXMwO3ofP4Fgjw1sUbA-203" value="" style="group;fontFamily=Times New Roman;fontSize=25;fontColor=#FFFFFF;fillColor=default;" parent="1" vertex="1" connectable="0">
          <mxGeometry x="920" y="129" width="80" height="80" as="geometry" />
        </mxCell>
        <mxCell id="gyXMwO3ofP4Fgjw1sUbA-204" value="&lt;font color=&quot;#ffffff&quot; style=&quot;font-size: 25px;&quot;&gt;1.0&lt;/font&gt;" style="ellipse;whiteSpace=wrap;html=1;aspect=fixed;fontFamily=Times New Roman;fontSize=25;fillColor=#008a00;strokeColor=#005700;fontColor=#ffffff;" parent="gyXMwO3ofP4Fgjw1sUbA-203" vertex="1">
          <mxGeometry y="-7" width="80" height="80" as="geometry" />
        </mxCell>
        <mxCell id="gyXMwO3ofP4Fgjw1sUbA-211" value="" style="rounded=0;orthogonalLoop=1;jettySize=auto;html=1;entryX=1;entryY=1;entryDx=0;entryDy=0;fontFamily=Times New Roman;fontSize=25;fontColor=#FFFFFF;" parent="1" source="gyXMwO3ofP4Fgjw1sUbA-176" edge="1">
          <mxGeometry relative="1" as="geometry">
            <mxPoint x="1238.2842712474621" y="190.28427124746213" as="targetPoint" />
          </mxGeometry>
        </mxCell>
        <mxCell id="gyXMwO3ofP4Fgjw1sUbA-212" value="" style="edgeStyle=orthogonalEdgeStyle;rounded=0;orthogonalLoop=1;jettySize=auto;html=1;fontFamily=Times New Roman;fontSize=25;fontColor=#FFFFFF;" parent="1" source="gyXMwO3ofP4Fgjw1sUbA-179" edge="1">
          <mxGeometry relative="1" as="geometry">
            <mxPoint x="1250" y="162" as="targetPoint" />
          </mxGeometry>
        </mxCell>
        <mxCell id="gyXMwO3ofP4Fgjw1sUbA-213" value="" style="rounded=0;orthogonalLoop=1;jettySize=auto;html=1;entryX=0;entryY=1;entryDx=0;entryDy=0;fontFamily=Times New Roman;fontSize=25;fontColor=#FFFFFF;" parent="1" source="gyXMwO3ofP4Fgjw1sUbA-201" edge="1">
          <mxGeometry relative="1" as="geometry">
            <mxPoint x="1071.7157287525379" y="190.28427124746213" as="targetPoint" />
          </mxGeometry>
        </mxCell>
        <mxCell id="gyXMwO3ofP4Fgjw1sUbA-207" value="" style="rounded=0;orthogonalLoop=1;jettySize=auto;html=1;fontFamily=Times New Roman;fontSize=25;fontColor=#FFFFFF;" parent="1" edge="1">
          <mxGeometry relative="1" as="geometry">
            <mxPoint x="1116.325221649989" y="125.483056835551" as="sourcePoint" />
            <mxPoint x="1138.5605602601331" y="76.4656663320684" as="targetPoint" />
          </mxGeometry>
        </mxCell>
        <mxCell id="gyXMwO3ofP4Fgjw1sUbA-214" value="" style="edgeStyle=orthogonalEdgeStyle;rounded=0;orthogonalLoop=1;jettySize=auto;html=1;fontFamily=Times New Roman;fontSize=25;fontColor=#FFFFFF;" parent="1" source="gyXMwO3ofP4Fgjw1sUbA-204" edge="1">
          <mxGeometry relative="1" as="geometry">
            <mxPoint x="1060" y="162" as="targetPoint" />
          </mxGeometry>
        </mxCell>
        <mxCell id="gyXMwO3ofP4Fgjw1sUbA-222" value="" style="edgeStyle=orthogonalEdgeStyle;rounded=0;orthogonalLoop=1;jettySize=auto;html=1;fontFamily=Times New Roman;fontSize=25;" parent="1" source="gyXMwO3ofP4Fgjw1sUbA-215" target="gyXMwO3ofP4Fgjw1sUbA-201" edge="1">
          <mxGeometry relative="1" as="geometry" />
        </mxCell>
        <mxCell id="gyXMwO3ofP4Fgjw1sUbA-215" value="&lt;font style=&quot;&quot;&gt;&lt;i style=&quot;font-size: 25px;&quot;&gt;x&lt;/i&gt;&lt;sub style=&quot;&quot;&gt;&lt;font style=&quot;font-size: 20px;&quot;&gt;2&lt;/font&gt;&lt;/sub&gt;&lt;/font&gt;" style="text;html=1;strokeColor=none;fillColor=none;align=center;verticalAlign=middle;whiteSpace=wrap;rounded=0;fontFamily=Times New Roman;fontSize=25;" parent="1" vertex="1">
          <mxGeometry x="850" y="274" width="30" height="30" as="geometry" />
        </mxCell>
        <mxCell id="gyXMwO3ofP4Fgjw1sUbA-221" value="" style="edgeStyle=orthogonalEdgeStyle;rounded=0;orthogonalLoop=1;jettySize=auto;html=1;fontFamily=Times New Roman;fontSize=25;" parent="1" source="gyXMwO3ofP4Fgjw1sUbA-216" target="gyXMwO3ofP4Fgjw1sUbA-204" edge="1">
          <mxGeometry relative="1" as="geometry" />
        </mxCell>
        <mxCell id="gyXMwO3ofP4Fgjw1sUbA-216" value="&lt;font style=&quot;&quot;&gt;&lt;i style=&quot;font-size: 25px;&quot;&gt;x&lt;/i&gt;&lt;sub style=&quot;&quot;&gt;&lt;font style=&quot;font-size: 20px;&quot;&gt;1&lt;/font&gt;&lt;/sub&gt;&lt;/font&gt;" style="text;html=1;strokeColor=none;fillColor=none;align=center;verticalAlign=middle;whiteSpace=wrap;rounded=0;fontFamily=Times New Roman;fontSize=25;" parent="1" vertex="1">
          <mxGeometry x="850" y="147" width="30" height="30" as="geometry" />
        </mxCell>
        <mxCell id="gyXMwO3ofP4Fgjw1sUbA-224" value="" style="edgeStyle=orthogonalEdgeStyle;rounded=0;orthogonalLoop=1;jettySize=auto;html=1;fontFamily=Times New Roman;fontSize=25;" parent="1" source="gyXMwO3ofP4Fgjw1sUbA-219" target="gyXMwO3ofP4Fgjw1sUbA-176" edge="1">
          <mxGeometry relative="1" as="geometry" />
        </mxCell>
        <mxCell id="gyXMwO3ofP4Fgjw1sUbA-219" value="&lt;font style=&quot;&quot;&gt;&lt;i style=&quot;font-size: 25px;&quot;&gt;x&lt;/i&gt;&lt;sub style=&quot;&quot;&gt;&lt;font style=&quot;font-size: 20px;&quot;&gt;2&lt;/font&gt;&lt;/sub&gt;&lt;/font&gt;" style="text;html=1;strokeColor=none;fillColor=none;align=center;verticalAlign=middle;whiteSpace=wrap;rounded=0;fontFamily=Times New Roman;fontSize=25;" parent="1" vertex="1">
          <mxGeometry x="1430" y="274" width="30" height="30" as="geometry" />
        </mxCell>
        <mxCell id="gyXMwO3ofP4Fgjw1sUbA-223" value="" style="edgeStyle=orthogonalEdgeStyle;rounded=0;orthogonalLoop=1;jettySize=auto;html=1;fontFamily=Times New Roman;fontSize=25;" parent="1" source="gyXMwO3ofP4Fgjw1sUbA-220" target="gyXMwO3ofP4Fgjw1sUbA-179" edge="1">
          <mxGeometry relative="1" as="geometry" />
        </mxCell>
        <mxCell id="gyXMwO3ofP4Fgjw1sUbA-220" value="&lt;font style=&quot;&quot;&gt;&lt;i style=&quot;font-size: 25px;&quot;&gt;x&lt;/i&gt;&lt;sub style=&quot;&quot;&gt;&lt;font style=&quot;font-size: 20px;&quot;&gt;1&lt;/font&gt;&lt;/sub&gt;&lt;/font&gt;" style="text;html=1;strokeColor=none;fillColor=none;align=center;verticalAlign=middle;whiteSpace=wrap;rounded=0;fontFamily=Times New Roman;fontSize=25;" parent="1" vertex="1">
          <mxGeometry x="1430" y="147" width="30" height="30" as="geometry" />
        </mxCell>
        <mxCell id="gyXMwO3ofP4Fgjw1sUbA-208" value="" style="rounded=0;orthogonalLoop=1;jettySize=auto;html=1;fontFamily=Times New Roman;fontSize=25;fontColor=#FFFFFF;" parent="1" edge="1">
          <mxGeometry relative="1" as="geometry">
            <mxPoint x="1193.674778349969" y="125.48305683545732" as="sourcePoint" />
            <mxPoint x="1171.4394397398673" y="76.4656663320693" as="targetPoint" />
          </mxGeometry>
        </mxCell>
        <mxCell id="v7XSi6cQseh0YPs8RFTg-62" value="" style="group;fontFamily=Times New Roman;fontSize=25;fontColor=#FFFFFF;" parent="1" vertex="1" connectable="0">
          <mxGeometry x="1115" width="80" height="80" as="geometry" />
        </mxCell>
        <mxCell id="v7XSi6cQseh0YPs8RFTg-63" value="0.49" style="ellipse;whiteSpace=wrap;html=1;aspect=fixed;fontFamily=Times New Roman;fontSize=25;fontColor=#FFFFFF;fillColor=#fa6800;strokeColor=#C73500;" parent="v7XSi6cQseh0YPs8RFTg-62" vertex="1">
          <mxGeometry width="80" height="80" as="geometry" />
        </mxCell>
        <mxCell id="v7XSi6cQseh0YPs8RFTg-64" value="" style="group;fontFamily=Times New Roman;fontSize=25;fontColor=#FFFFFF;" parent="1" vertex="1" connectable="0">
          <mxGeometry x="1170" y="122" width="80" height="80" as="geometry" />
        </mxCell>
        <mxCell id="v7XSi6cQseh0YPs8RFTg-65" value="0.64" style="ellipse;whiteSpace=wrap;html=1;aspect=fixed;fontFamily=Times New Roman;fontSize=25;fontColor=#FFFFFF;fillColor=#fa6800;strokeColor=#C73500;" parent="v7XSi6cQseh0YPs8RFTg-64" vertex="1">
          <mxGeometry width="80" height="80" as="geometry" />
        </mxCell>
        <mxCell id="v7XSi6cQseh0YPs8RFTg-66" value="" style="group;fontFamily=Times New Roman;fontSize=25;fontColor=#FFFFFF;" parent="1" vertex="1" connectable="0">
          <mxGeometry x="1060" y="122" width="80" height="80" as="geometry" />
        </mxCell>
        <mxCell id="v7XSi6cQseh0YPs8RFTg-67" value="0.35" style="ellipse;whiteSpace=wrap;html=1;aspect=fixed;fontFamily=Times New Roman;fontSize=25;fontColor=#FFFFFF;fillColor=#fa6800;strokeColor=#C73500;" parent="v7XSi6cQseh0YPs8RFTg-66" vertex="1">
          <mxGeometry width="80" height="80" as="geometry" />
        </mxCell>
        <mxCell id="v7XSi6cQseh0YPs8RFTg-68" value="" style="group;fontFamily=Times New Roman;fontSize=25;fontColor=#FFFFFF;" parent="1" vertex="1" connectable="0">
          <mxGeometry x="1170" y="249" width="80" height="80" as="geometry" />
        </mxCell>
        <mxCell id="v7XSi6cQseh0YPs8RFTg-69" value="0.77" style="ellipse;whiteSpace=wrap;html=1;aspect=fixed;fontFamily=Times New Roman;fontSize=25;fontColor=#FFFFFF;fillColor=#fa6800;strokeColor=#C73500;" parent="v7XSi6cQseh0YPs8RFTg-68" vertex="1">
          <mxGeometry width="80" height="80" as="geometry" />
        </mxCell>
        <mxCell id="v7XSi6cQseh0YPs8RFTg-70" value="" style="group;fontFamily=Times New Roman;fontSize=25;fontColor=#FFFFFF;" parent="1" vertex="1" connectable="0">
          <mxGeometry x="1060" y="249" width="80" height="80" as="geometry" />
        </mxCell>
        <mxCell id="v7XSi6cQseh0YPs8RFTg-71" value="0.58" style="ellipse;whiteSpace=wrap;html=1;aspect=fixed;fontFamily=Times New Roman;fontSize=25;fontColor=#FFFFFF;fillColor=#fa6800;strokeColor=#C73500;" parent="v7XSi6cQseh0YPs8RFTg-70" vertex="1">
          <mxGeometry width="80" height="80" as="geometry" />
        </mxCell>
        <mxCell id="v7XSi6cQseh0YPs8RFTg-72" value="" style="group;fontFamily=Times New Roman;fontSize=25;fontColor=#FFFFFF;" parent="1" vertex="1" connectable="0">
          <mxGeometry x="1280" y="370" width="80" height="80" as="geometry" />
        </mxCell>
        <mxCell id="v7XSi6cQseh0YPs8RFTg-73" value="0.77" style="ellipse;whiteSpace=wrap;html=1;aspect=fixed;fontFamily=Times New Roman;fontSize=25;fontColor=#FFFFFF;fillColor=#fa6800;strokeColor=#C73500;" parent="v7XSi6cQseh0YPs8RFTg-72" vertex="1">
          <mxGeometry width="80" height="80" as="geometry" />
        </mxCell>
        <mxCell id="v7XSi6cQseh0YPs8RFTg-74" value="" style="group;fontFamily=Times New Roman;fontSize=25;fontColor=#FFFFFF;" parent="1" vertex="1" connectable="0">
          <mxGeometry x="1170" y="369" width="80" height="80" as="geometry" />
        </mxCell>
        <mxCell id="v7XSi6cQseh0YPs8RFTg-75" value="0.77" style="ellipse;whiteSpace=wrap;html=1;aspect=fixed;fontFamily=Times New Roman;fontSize=25;fontColor=#FFFFFF;fillColor=#fa6800;strokeColor=#C73500;" parent="v7XSi6cQseh0YPs8RFTg-74" vertex="1">
          <mxGeometry width="80" height="80" as="geometry" />
        </mxCell>
        <mxCell id="v7XSi6cQseh0YPs8RFTg-76" value="" style="group;fontFamily=Times New Roman;fontSize=25;fontColor=#FFFFFF;" parent="1" vertex="1" connectable="0">
          <mxGeometry x="1060" y="369" width="80" height="80" as="geometry" />
        </mxCell>
        <mxCell id="v7XSi6cQseh0YPs8RFTg-77" value="0.58" style="ellipse;whiteSpace=wrap;html=1;aspect=fixed;fontFamily=Times New Roman;fontSize=25;fontColor=#FFFFFF;fillColor=#fa6800;strokeColor=#C73500;" parent="v7XSi6cQseh0YPs8RFTg-76" vertex="1">
          <mxGeometry width="80" height="80" as="geometry" />
        </mxCell>
        <mxCell id="v7XSi6cQseh0YPs8RFTg-78" value="" style="group;fontFamily=Times New Roman;fontSize=25;fontColor=#FFFFFF;" parent="1" vertex="1" connectable="0">
          <mxGeometry x="950" y="369" width="80" height="80" as="geometry" />
        </mxCell>
        <mxCell id="v7XSi6cQseh0YPs8RFTg-79" value="0.58" style="ellipse;whiteSpace=wrap;html=1;aspect=fixed;fontFamily=Times New Roman;fontSize=25;fontColor=#FFFFFF;fillColor=#fa6800;strokeColor=#C73500;" parent="v7XSi6cQseh0YPs8RFTg-78" vertex="1">
          <mxGeometry width="80" height="80" as="geometry" />
        </mxCell>
        <mxCell id="v7XSi6cQseh0YPs8RFTg-80" value="0.5" style="text;html=1;strokeColor=none;fillColor=none;align=center;verticalAlign=middle;whiteSpace=wrap;rounded=0;" parent="1" vertex="1">
          <mxGeometry x="1005" y="320" width="60" height="30" as="geometry" />
        </mxCell>
        <mxCell id="v7XSi6cQseh0YPs8RFTg-81" value="0.5" style="text;html=1;strokeColor=none;fillColor=none;align=center;verticalAlign=middle;whiteSpace=wrap;rounded=0;" parent="1" vertex="1">
          <mxGeometry x="1055" y="339" width="60" height="30" as="geometry" />
        </mxCell>
        <mxCell id="v7XSi6cQseh0YPs8RFTg-82" value="0.5" style="text;html=1;strokeColor=none;fillColor=none;align=center;verticalAlign=middle;whiteSpace=wrap;rounded=0;" parent="1" vertex="1">
          <mxGeometry x="1195" y="339" width="60" height="30" as="geometry" />
        </mxCell>
        <mxCell id="v7XSi6cQseh0YPs8RFTg-83" value="0.5" style="text;html=1;strokeColor=none;fillColor=none;align=center;verticalAlign=middle;whiteSpace=wrap;rounded=0;" parent="1" vertex="1">
          <mxGeometry x="1245" y="320" width="60" height="30" as="geometry" />
        </mxCell>
        <mxCell id="v7XSi6cQseh0YPs8RFTg-84" value="0.5" style="text;html=1;strokeColor=none;fillColor=none;align=center;verticalAlign=middle;whiteSpace=wrap;rounded=0;" parent="1" vertex="1">
          <mxGeometry x="1170" y="80" width="60" height="30" as="geometry" />
        </mxCell>
        <mxCell id="v7XSi6cQseh0YPs8RFTg-85" value="0.5" style="text;html=1;strokeColor=none;fillColor=none;align=center;verticalAlign=middle;whiteSpace=wrap;rounded=0;" parent="1" vertex="1">
          <mxGeometry x="1080" y="80" width="60" height="30" as="geometry" />
        </mxCell>
      </root>
    </mxGraphModel>
  </diagram>
</mxfile>
